<svg xmlns="http://www.w3.org/2000/svg" width="1024" height="1024" viewBox="0 0 1024 1024"><path d="M 194.750 348.750 C 213.037 348.902, 242.962 348.902, 261.250 348.750 C 279.538 348.597, 264.575 348.472, 228 348.472 C 191.425 348.472, 176.462 348.597, 194.750 348.750 M 381.250 348.735 C 383.863 348.941, 388.137 348.941, 390.750 348.735 C 393.363 348.529, 391.225 348.360, 386 348.360 C 380.775 348.360, 378.637 348.529, 381.250 348.735 M 403.296 348.744 C 407.583 348.932, 414.333 348.931, 418.296 348.742 C 422.258 348.552, 418.750 348.399, 410.500 348.400 C 402.250 348.401, 399.008 348.556, 403.296 348.744 M 464.359 348.749 C 489.675 349.017, 491.139 349.133, 489.859 350.767 C 488.630 352.334, 488.668 352.369, 490.250 351.128 C 491.212 350.373, 492 349.360, 492 348.878 C 492 348.390, 479.892 348.104, 464.750 348.233 L 437.500 348.466 464.359 348.749 M 166.768 374.725 C 168.565 374.947, 171.265 374.943, 172.768 374.715 C 174.271 374.486, 172.800 374.304, 169.500 374.310 C 166.200 374.315, 164.971 374.502, 166.768 374.725 M 116.776 421.733 C 119.128 421.945, 122.728 421.942, 124.776 421.727 C 126.824 421.512, 124.900 421.339, 120.500 421.343 C 116.100 421.346, 114.424 421.522, 116.776 421.733 M 638.211 442.750 L 638.422 453.500 638.745 443.286 L 639.069 433.072 648.785 432.745 L 658.500 432.419 648.250 432.209 L 638 432 638.211 442.750 M 643.287 454.740 C 646.469 454.939, 651.419 454.937, 654.287 454.736 C 657.154 454.535, 654.550 454.372, 648.500 454.374 C 642.450 454.376, 640.104 454.541, 643.287 454.740 M 892.402 468.243 L 892.500 472.500 915.251 472.529 L 938.001 472.558 915.557 472.260 L 893.113 471.963 892.708 467.974 L 892.304 463.985 892.402 468.243 M 638.222 484.750 L 638.444 500.500 638.748 485.297 L 639.052 470.094 645.276 469.740 L 651.500 469.385 644.750 469.193 L 638 469 638.222 484.750 M 591.320 534 C 591.320 537.575, 591.502 539.038, 591.723 537.250 C 591.945 535.462, 591.945 532.538, 591.723 530.750 C 591.502 528.962, 591.320 530.425, 591.320 534 M 630.500 579.597 C 635.103 580.346, 642.777 580.444, 642.347 579.750 C 642.091 579.337, 638.871 579.061, 635.191 579.136 C 631.511 579.211, 629.400 579.419, 630.500 579.597 M 218.768 674.725 C 220.565 674.947, 223.265 674.943, 224.768 674.715 C 226.271 674.486, 224.800 674.304, 221.500 674.310 C 218.200 674.315, 216.971 674.502, 218.768 674.725" stroke="none" fill="#e94657" fill-rule="evenodd"></path><path d="M 385.750 348.786 C 380.387 348.944, 376 349.452, 376 349.916 C 376 350.380, 372.953 354.302, 369.229 358.630 C 365.505 362.959, 355.451 374.825, 346.888 385 C 338.325 395.175, 328.435 406.924, 324.909 411.109 C 321.384 415.295, 308.532 430.595, 296.348 445.109 C 270.873 475.460, 266.558 480.313, 267.552 477.500 C 267.941 476.400, 273.605 449.850, 280.140 418.500 C 286.674 387.150, 292.616 358.676, 293.345 355.224 L 294.670 348.948 225.585 349.224 L 156.500 349.500 151.674 351.876 C 145.488 354.922, 143.058 359.312, 144.984 363.962 C 148.843 373.278, 158.033 374.915, 206.795 374.973 L 230.091 375 232.545 377.455 C 236.750 381.659, 235.319 393.176, 230.287 395.629 C 229.304 396.108, 201.950 396.749, 169.500 397.053 C 105.657 397.650, 105.622 397.654, 100.339 403.168 C 94.549 409.211, 98.335 417.158, 108.346 419.974 C 111.145 420.761, 129.463 421.320, 164.500 421.687 C 194.797 422.005, 217.266 422.635, 218.335 423.197 C 221.635 424.931, 223.135 430.273, 221.917 435.953 C 219.947 445.135, 220.493 445, 185.365 445 C 168.664 445, 155 445.150, 155 445.334 C 155 445.517, 146.654 487.255, 136.454 538.084 C 126.253 588.913, 116.159 639.385, 114.022 650.246 C 111.886 661.106, 109.851 670.893, 109.501 671.996 C 108.870 673.986, 109.276 674, 167.683 673.998 L 226.500 673.995 235.399 630.248 C 252.937 544.026, 256.774 525.567, 257.695 523 C 258.173 521.667, 258.293 521.667, 258.776 523 C 259.572 525.202, 279.916 557.448, 295.210 580.749 C 302.519 591.886, 313.675 608.880, 320 618.513 C 326.325 628.147, 336.978 644.459, 343.673 654.764 L 355.847 673.500 361.673 674.169 C 364.878 674.537, 393.721 674.862, 425.769 674.890 C 480.595 674.938, 483.982 674.839, 483.083 673.220 C 482.558 672.274, 475.824 662.275, 468.118 651 C 460.413 639.725, 449.398 623.525, 443.641 615 C 437.884 606.475, 428.575 592.750, 422.955 584.500 C 417.334 576.250, 404.165 556.900, 393.689 541.500 C 383.214 526.100, 372.698 510.659, 370.322 507.187 C 367.945 503.715, 366 500.294, 366 499.585 C 366 498.876, 369.262 494.530, 373.250 489.927 C 382.060 479.758, 413.593 442.226, 434.520 417 C 442.962 406.825, 459.123 387.513, 470.435 374.085 C 481.747 360.656, 490.854 349.521, 490.672 349.339 C 490.236 348.903, 398.281 348.418, 385.750 348.786 M 828.383 416.885 C 822.552 418.396, 816.005 422.170, 813.099 425.696 C 804.577 436.034, 807.669 452.044, 819.465 458.661 C 821.595 459.855, 828.774 462.267, 835.419 464.020 C 848.824 467.556, 852.312 469.195, 853.915 472.712 C 857.660 480.931, 851.324 487, 839 487 C 829.950 487, 822.884 483.093, 821.819 477.500 C 821.471 475.675, 820.786 475.530, 813.969 475.843 C 809.861 476.032, 806.373 476.309, 806.217 476.460 C 805.162 477.478, 807.822 486.003, 810.394 489.845 C 812.755 493.371, 815.155 495.325, 820.399 497.992 C 827.061 501.379, 827.680 501.500, 838.399 501.494 C 848.537 501.489, 850.048 501.236, 855.813 498.579 C 862.727 495.393, 868.226 489.874, 870.078 484.263 C 870.704 482.368, 871.041 477.728, 870.827 473.952 C 870.088 460.862, 863.388 455.385, 841.500 449.980 C 828.285 446.716, 825 444.510, 825 438.899 C 825 432.371, 833.787 428.533, 843.071 431.006 C 848.270 432.391, 850.363 434.049, 852.047 438.113 C 853.266 441.056, 853.339 441.079, 860.388 440.791 L 867.500 440.500 867.284 436.784 C 867.070 433.111, 863.161 425.730, 860.086 423.191 C 859.214 422.470, 856.095 420.730, 853.156 419.324 C 847.387 416.564, 834.514 415.296, 828.383 416.885 M 531 458.500 L 531 500 539 500 L 547 500 547.009 487.750 L 547.018 475.500 551.866 469.837 L 556.713 464.174 569.004 482.087 L 581.296 500 591.233 500 L 601.170 500 595.835 492.517 C 592.901 488.401, 585.399 477.829, 579.164 469.023 L 567.828 453.011 582.414 435.586 C 590.436 426.001, 597 417.899, 597 417.580 C 597 417.261, 592.745 417, 587.545 417 L 578.090 417 570.295 426.346 C 566.008 431.486, 559.125 439.847, 555 444.924 L 547.500 454.157 547.228 435.579 L 546.956 417 538.978 417 L 531 417 531 458.500 M 622 458.500 L 622 500 630 500 L 638 500 638 484.500 L 638 469 644.477 469 C 650.111 469, 651.137 469.293, 652.359 471.250 C 653.132 472.488, 657.259 479.462, 661.531 486.750 L 669.298 500 678.573 500 L 687.847 500 677.924 483.926 C 672.466 475.085, 668 467.669, 668 467.446 C 668 467.223, 669.688 466.173, 671.750 465.112 C 679.496 461.128, 683.991 453.976, 684.759 444.413 C 685.177 439.205, 684.852 437.395, 682.687 432.868 C 679.684 426.591, 678.589 425.191, 674.368 422.229 C 668.858 418.363, 660.139 417.031, 640.250 417.015 L 622 417 622 458.500 M 723.500 457.564 C 714.700 479.870, 707.350 498.543, 707.167 499.060 C 706.975 499.599, 710.462 500, 715.345 500 L 723.856 500 725.797 494.750 C 726.864 491.863, 728.337 487.813, 729.069 485.750 L 730.402 482 747.567 482 L 764.732 482 766.931 488.250 C 771.519 501.291, 770.125 500, 779.621 500 C 784.230 500, 788 499.864, 788 499.697 C 788 499.264, 772.736 460.040, 763.503 436.750 L 755.674 417 747.587 417.004 L 739.500 417.009 723.500 457.564 M 638 443.500 L 638 455 648.032 455 C 662.989 455, 668 452.092, 668 443.412 C 668 434.871, 662.805 432.015, 647.250 432.006 L 638 432 638 443.500 M 745.559 440.514 C 744.701 442.566, 743.994 444.527, 743.988 444.872 C 743.981 445.217, 742.181 450.426, 739.988 456.447 C 737.794 462.468, 736 467.530, 736 467.697 C 736 467.864, 741.175 468, 747.500 468 C 753.825 468, 759 467.852, 759 467.671 C 759 467.003, 747.937 437.604, 747.534 437.201 C 747.305 436.972, 746.416 438.462, 745.559 440.514 M 94.500 445.630 C 84.186 448.211, 80 451.494, 80 457 C 80 465.072, 90.034 469.280, 109.500 469.371 C 118.513 469.413, 122.799 468.982, 126.720 467.643 C 138.490 463.621, 140.541 452.955, 130.553 447.712 C 127.015 445.855, 124.592 445.555, 111.500 445.357 C 103.250 445.232, 95.600 445.354, 94.500 445.630 M 893 464.500 L 893 472 915.500 472 L 938 472 938 464.500 L 938 457 915.500 457 L 893 457 893 464.500 M 898.500 529.426 C 885.498 534.833, 879.560 547.952, 884.890 559.500 C 888.434 567.178, 895.008 570.890, 913.852 575.854 C 926.787 579.260, 930 581.421, 930 586.709 C 930 593.594, 925.273 597, 915.717 597 C 906.159 597, 897 592.155, 897 587.099 C 897 585.141, 896.460 585, 888.955 585 L 880.909 585 881.589 588.750 C 882.825 595.567, 885.175 599.984, 889.671 603.941 C 895.214 608.821, 901.192 610.925, 911.691 611.691 C 923.266 612.536, 932.630 609.587, 939.019 603.085 C 948.450 593.488, 948.416 577.577, 938.949 569.610 C 934.742 566.071, 933.214 565.472, 918.282 561.512 C 911.563 559.730, 904.905 557.512, 903.487 556.583 C 899.621 554.050, 898.444 550.757, 900.032 546.922 C 903.539 538.456, 922.074 539.108, 926 547.835 L 927.500 551.169 934.847 550.654 C 938.888 550.371, 942.393 549.941, 942.636 549.697 C 942.879 549.454, 942.430 547.373, 941.637 545.073 C 937.560 533.239, 929.060 527.861, 913.500 527.272 C 905.701 526.977, 903.699 527.264, 898.500 529.426 M 531 535.500 L 531 543 542 543 L 553 543 553.091 566.250 C 553.141 579.038, 553.105 593.888, 553.012 599.250 L 552.841 609 561.447 609 L 570.053 609 569.776 576 L 569.500 542.999 580.867 543 C 592.166 543, 592.230 542.987, 591.630 540.750 C 591.299 539.513, 591.021 536.138, 591.014 533.250 L 591 528 561 528 L 531 528 531 535.500 M 613 568.388 L 613 609 621 609 L 629 609 629 594 L 629 579 635.363 579 L 641.726 579 650.467 594 L 659.208 609 668.635 609 L 678.061 609 674.367 603.250 C 667.548 592.636, 658.785 577.881, 659.144 577.617 C 659.340 577.473, 661.525 576.195, 664 574.776 C 671.677 570.374, 676 562.375, 676 552.571 C 676 546.184, 672.193 538.012, 667.578 534.492 C 661.010 529.482, 657.025 528.735, 634.250 528.239 L 613 527.777 613 568.388 M 725.083 530.250 C 721.066 540.672, 699.263 595.999, 697.006 601.500 L 694.133 608.500 702.223 608.793 C 706.673 608.954, 710.620 608.729, 710.994 608.293 C 711.368 607.857, 712.976 604.013, 714.568 599.750 L 717.462 592 734.088 592 L 750.714 592 754 600.500 L 757.286 609 765.643 609 C 770.239 609, 774 608.742, 774 608.426 C 774 608.110, 769.881 597.647, 764.847 585.176 C 755.021 560.833, 745.508 536.519, 743.749 531.250 L 742.664 528 734.307 528 C 726.565 528, 725.887 528.165, 725.083 530.250 M 792 568.500 L 792 609 799.983 609 L 807.967 609 808.233 582.839 L 808.500 556.678 826.353 582.839 L 844.205 609 852.103 609 L 860 609 860 568.500 L 860 528 852 528 L 844 528 844 554.679 L 844 581.359 834.209 566.929 C 828.824 558.993, 820.639 546.987, 816.022 540.250 L 807.626 528 799.813 528 L 792 528 792 568.500 M 628.999 553.750 L 629 565 639.750 564.998 C 653.202 564.997, 656.857 563.532, 658.810 557.361 C 659.920 553.855, 659.894 552.682, 658.639 549.678 C 656.456 544.453, 653.200 543.245, 640.234 542.846 L 628.998 542.500 628.999 553.750 M 733 548.348 C 733 549.154, 730.750 555.929, 728 563.402 C 725.250 570.876, 723 577.217, 723 577.495 C 723 577.773, 727.980 578, 734.067 578 C 746.954 578, 746.264 580.060, 739.369 562.151 C 736.966 555.909, 735 550.198, 735 549.460 C 735 548.722, 734.550 547.840, 734 547.500 C 733.450 547.160, 733 547.542, 733 548.348" stroke="none" fill="#ec213b" fill-rule="evenodd"></path></svg>